<?xml version="1.0" encoding="UTF-8" standalone="no"?>
<svg width="59px" height="27px" viewBox="0 0 59 27" version="1.1" xmlns="http://www.w3.org/2000/svg" xmlns:xlink="http://www.w3.org/1999/xlink" xmlns:sketch="http://www.bohemiancoding.com/sketch/ns">
    <!-- Generator: Sketch 3.4.4 (17249) - http://www.bohemiancoding.com/sketch -->
    <title>Group</title>
    <desc>Created with Sketch.</desc>
    <defs></defs>
    <g id="Page-1" stroke="none" stroke-width="1" fill="none" fill-rule="evenodd" sketch:type="MSPage">
        <g id="Desktop-HD-Copy" sketch:type="MSArtboardGroup" transform="translate(-207.000000, -356.000000)" fill="#F26E20">
            <g id="Group" sketch:type="MSLayerGroup" transform="translate(207.000000, 356.000000)">
                <path d="M1.10908937,14.2688796 C1.08805833,14.1230144 0.983591458,14.0224931 0.854811667,14.0224931 C0.725368125,14.0224931 0.618270833,14.1263085 0.600533958,14.2688796 C0.600533958,14.2701948 0,19.755855 0,19.755855 L0.600533958,25.1212781 C0.617619375,25.2651767 0.724716667,25.3689798 0.854811667,25.3689798 C0.98294,25.3689798 1.08740688,25.2677948 1.10842563,25.1225933 L1.79175625,19.7558427 L1.10908937,14.2688796 L1.10908937,14.2688796 Z" id="Shape" sketch:type="MSShapeGroup"></path>
                <path d="M10.5731688,9.20766292 C10.3267823,9.20766292 10.1230971,9.40938146 10.1112725,9.66562583 L9.63294229,19.7604644 L10.1112725,26.2842665 C10.1237608,26.5391956 10.3267823,26.7402504 10.5731688,26.7402504 C10.81824,26.7402504 11.0212738,26.5385442 11.0357287,26.2829512 L11.0357287,26.2849179 L11.576476,19.7604644 L11.0357287,9.66562583 C11.0212737,9.40936917 10.81824,9.20766292 10.5731688,9.20766292 L10.5731688,9.20766292 Z" id="Shape" sketch:type="MSShapeGroup"></path>
                <path d="M5.67489042,12.7162823 C5.48566021,12.7162823 5.33125229,12.867396 5.31614583,13.0691146 L4.77736521,19.757834 L5.31614583,26.2290646 C5.33060083,26.4294679 5.48566021,26.5805817 5.67489042,26.5805817 C5.86215396,26.5805817 6.01654958,26.4294679 6.03298354,26.2290646 L6.64535438,19.757834 L6.03298354,13.0677994 C6.01656188,12.8674083 5.86215396,12.7162823 5.67489042,12.7162823 L5.67489042,12.7162823 Z" id="Shape" sketch:type="MSShapeGroup"></path>
                <path d="M15.5509373,26.7395867 C15.856459,26.7395867 16.1048244,26.4932002 16.1173127,26.1778083 L16.5864487,19.763734 L16.1179765,6.32387813 C16.1054881,6.00849854 15.857135,5.76209979 15.551601,5.76209979 C15.243449,5.76209979 14.9944321,6.00915 14.9845742,6.32452958 L14.568661,19.7630702 L14.9845742,26.179775 C14.9944198,26.4925365 15.2434367,26.7395867 15.5509373,26.7395867 L15.5509373,26.7395867 Z" id="Shape" sketch:type="MSShapeGroup"></path>
                <path d="M25.7417,26.7698119 C26.1622102,26.7698119 26.5091302,26.4235433 26.5170092,25.9977846 L26.5170092,26.0023817 L26.5170092,25.9977846 L26.8442133,19.7676796 L26.5170092,4.24565229 C26.5097817,3.820545 26.1622102,3.473625 25.7417,3.473625 C25.3205383,3.473625 24.9729546,3.81988125 24.9663908,4.24630375 L24.674009,19.7624188 C24.674009,19.7722767 24.9663908,26.0017179 24.9663908,26.0017179 C24.9729546,26.4235433 25.3211898,26.7698119 25.7417,26.7698119 L25.7417,26.7698119 Z" id="Shape" sketch:type="MSShapeGroup"></path>
                <path d="M20.6075569,26.745499 C20.973529,26.745499 21.2685412,26.4518019 21.2783992,26.0772871 L21.2783992,26.0818842 L21.6765631,19.7650492 L21.2777354,6.22796625 C21.2678775,5.85345146 20.9728652,5.56040583 20.6068931,5.56040583 C20.2382906,5.56040583 19.9432783,5.85345146 19.9353994,6.22796625 L19.5812519,19.7657129 L19.9360631,26.0812327 C19.9439421,26.4518019 20.2389544,26.745499 20.6075569,26.745499 L20.6075569,26.745499 Z" id="Shape" sketch:type="MSShapeGroup"></path>
                <path d="M51.4860304,11.75634 C50.4564435,11.75634 49.474155,11.9646223 48.5792602,12.3398008 C47.9813567,5.56698187 42.3018569,0.254117917 35.3739785,0.254117917 C33.6787979,0.254117917 32.0263308,0.587898125 30.5670396,1.15229458 C30.0000127,1.37175 29.8488867,1.59776917 29.8436258,2.03601625 L29.8436258,25.8867417 C29.8495381,26.3466713 30.206316,26.7297288 30.6550725,26.7750727 C30.6741246,26.7770394 51.351326,26.787561 51.4853667,26.787561 C55.6352669,26.787561 58.9999877,23.4228402 58.9999877,19.2722763 C58.9999877,15.1217123 55.6359306,11.75634 51.4860304,11.75634 L51.4860304,11.75634 Z" id="Shape" sketch:type="MSShapeGroup"></path>
            </g>
        </g>
    </g>
</svg>