<?xml version="1.0" encoding="UTF-8" standalone="no"?>
<svg width="59px" height="27px" viewBox="0 0 59 27" version="1.1" xmlns="http://www.w3.org/2000/svg" xmlns:xlink="http://www.w3.org/1999/xlink" xmlns:sketch="http://www.bohemiancoding.com/sketch/ns">
    <!-- Generator: Sketch 3.4.4 (17249) - http://www.bohemiancoding.com/sketch -->
    <title>Group</title>
    <desc>Created with Sketch.</desc>
    <defs></defs>
    <g id="Page-1" stroke="none" stroke-width="1" fill="none" fill-rule="evenodd" sketch:type="MSPage">
        <g id="Desktop-HD" sketch:type="MSArtboardGroup" transform="translate(-208.000000, -357.000000)" fill="#444444">
            <g id="Group" sketch:type="MSLayerGroup" transform="translate(208.000000, 357.000000)">
                <path d="M1.10908938,14.1132191 C1.08805833,13.9689451 0.983591458,13.8695205 0.854811667,13.8695205 C0.725368125,13.8695205 0.618270833,13.9722034 0.600533958,14.1132191 C0.600533958,14.1145199 0,19.5403366 0,19.5403366 L0.600533958,24.8472278 C0.617619375,24.9895566 0.724716667,25.0922273 0.854811667,25.0922273 C0.98294,25.0922273 1.08740688,24.9921461 1.10842563,24.8485287 L1.79175625,19.5403244 L1.10908938,14.1132191 L1.10908938,14.1132191 Z" id="Shape" sketch:type="MSShapeGroup"></path>
                <path d="M10.5731688,9.10721568 C10.3267823,9.10721568 10.1230971,9.30673366 10.1112725,9.56018264 L9.63294229,19.5448957 L10.1112725,25.997529 C10.1237608,26.2496771 10.3267823,26.4485386 10.5731688,26.4485386 C10.81824,26.4485386 11.0212738,26.2490328 11.0357288,25.9962281 L11.0357288,25.9981734 L11.576476,19.5448957 L11.0357288,9.56018264 C11.0212738,9.3067215 10.81824,9.10721568 10.5731688,9.10721568 L10.5731688,9.10721568 Z" id="Shape" sketch:type="MSShapeGroup"></path>
                <path d="M5.67489042,12.5775592 C5.48566021,12.5775592 5.33125229,12.7270244 5.31614583,12.9265424 L4.77736521,19.542294 L5.31614583,25.9429293 C5.33060083,26.1411464 5.48566021,26.2906117 5.67489042,26.2906117 C5.86215396,26.2906117 6.01654958,26.1411464 6.03298354,25.9429293 L6.64535438,19.542294 L6.03298354,12.9252416 C6.01656188,12.7270366 5.86215396,12.5775592 5.67489042,12.5775592 L5.67489042,12.5775592 Z" id="Shape" sketch:type="MSShapeGroup"></path>
                <path d="M15.5509373,26.4478821 C15.856459,26.4478821 16.1048244,26.2041835 16.1173127,25.8922322 L16.5864487,19.5481296 L16.1179765,6.25489036 C16.1054881,5.94295128 15.857135,5.69924052 15.551601,5.69924052 C15.243449,5.69924052 14.9944321,5.94359564 14.9845742,6.25553472 L14.568661,19.5474731 L14.9845742,25.8941775 C14.9944198,26.203527 15.2434367,26.4478821 15.5509373,26.4478821 L15.5509373,26.4478821 Z" id="Shape" sketch:type="MSShapeGroup"></path>
                <path d="M25.7417,26.4777776 C26.1622102,26.4777776 26.5091302,26.1352865 26.5170092,25.7141724 L26.5170092,25.7187193 L26.5170092,25.7141724 L26.8442133,19.5520322 L26.5170092,4.19933608 C26.5097817,3.77886633 26.1622102,3.43573091 25.7417,3.43573091 C25.3205383,3.43573091 24.9729546,3.77820982 24.9663908,4.19998044 L24.674009,19.5468287 C24.674009,19.5565791 24.9663908,25.7180628 24.9663908,25.7180628 C24.9729546,26.1352865 25.3211898,26.4777776 25.7417,26.4777776 L25.7417,26.4777776 Z" id="Shape" sketch:type="MSShapeGroup"></path>
                <path d="M20.6075569,26.4537299 C20.973529,26.4537299 21.2685412,26.1632368 21.2783992,25.7928076 L21.2783992,25.7973545 L21.6765631,19.5494304 L21.2777354,6.1600248 C21.2678775,5.78959562 20.9728652,5.49974686 20.6068931,5.49974686 C20.2382906,5.49974686 19.9432783,5.78959562 19.9353994,6.1600248 L19.5812519,19.550087 L19.9360631,25.7967102 C19.9439421,26.1632368 20.2389544,26.4537299 20.6075569,26.4537299 L20.6075569,26.4537299 Z" id="Shape" sketch:type="MSShapeGroup"></path>
                <path d="M51.4860304,11.628089 C50.4564435,11.628089 49.474155,11.8340991 48.5792602,12.2051848 C47.9813567,5.50625116 42.3018569,0.251345721 35.3739785,0.251345721 C33.6787979,0.251345721 32.0263308,0.581484691 30.5670396,1.1397241 C30.0000127,1.35678545 29.8488867,1.58033896 29.8436258,2.01380516 L29.8436258,25.6043408 C29.8495381,26.059253 30.206316,26.4381317 30.6550725,26.482981 C30.6741246,26.4849262 51.351326,26.4953331 51.4853667,26.4953331 C55.6352669,26.4953331 58.9999877,23.1673183 58.9999877,19.0620332 C58.9999877,14.9567482 55.6359306,11.628089 51.4860304,11.628089 L51.4860304,11.628089 Z" id="Shape" sketch:type="MSShapeGroup"></path>
            </g>
        </g>
    </g>
</svg>